<svg width="24" height="24" viewBox="0 0 24 24" fill="none" xmlns="http://www.w3.org/2000/svg">
<path fill-rule="evenodd" clip-rule="evenodd" d="M18.4506 2.7917L13.2306 0.286357C12.4351 -0.0954524 11.5654 -0.0954524 10.7699 0.286357L5.54946 2.7917L0.304023 5.30921C-0.100755 5.50341 -0.100755 6.2721 0.304023 6.4668L2.96844 7.74558L5.54946 8.98431L5.70794 9.06138L10.7694 11.4902C11.5649 11.8725 12.4346 11.8725 13.2297 11.4902L18.2907 9.06138L18.4497 8.98431L21.0302 7.74558L23.6951 6.4668C24.0999 6.2726 24.0999 5.50392 23.6951 5.30972L18.4501 2.79221L18.4506 2.7917ZM21.493 16.477C21.1944 16.3335 20.8687 16.3335 20.5701 16.477L13.2301 19.999C12.4346 20.3808 11.5649 20.3808 10.7699 19.999L3.42986 16.477C3.13133 16.3335 2.80557 16.3335 2.50703 16.477L0.304023 17.5342C-0.100755 17.7284 -0.100755 18.4971 0.304023 18.6918L5.54946 21.2083L10.7699 23.7136C11.5654 24.0955 12.4351 24.0955 13.2306 23.7136L18.451 21.2083L23.6964 18.6918C24.1012 18.4976 24.1012 17.7284 23.6964 17.5342L21.4925 16.477H21.493ZM21.493 10.3559C21.1944 10.2129 20.8687 10.2129 20.5701 10.3559L13.2301 13.8784C12.4346 14.2602 11.5649 14.2602 10.7699 13.8784L3.42986 10.3559C3.13133 10.2129 2.80557 10.2129 2.50703 10.3559L0.303584 11.4131C-0.101195 11.6073 -0.101195 12.3765 0.303584 12.5702L5.54902 15.0872L10.7694 17.5925C11.5649 17.9743 12.4346 17.9743 13.2301 17.5925L18.4506 15.0872L23.696 12.5702C24.1008 12.376 24.1008 11.6073 23.696 11.4131L21.4921 10.3554L21.493 10.3559Z" fill="#663399"/>
</svg>
